<?xml version="1.0" standalone="no"?>
<!DOCTYPE svg PUBLIC "-//W3C//DTD SVG 20010904//EN"
 "http://www.w3.org/TR/2001/REC-SVG-20010904/DTD/svg10.dtd">
<svg version="1.0" xmlns="http://www.w3.org/2000/svg"
 width="460.000000pt" height="460.000000pt" viewBox="0 0 460.000000 460.000000"
 preserveAspectRatio="xMidYMid meet">

<g transform="translate(0.000000,460.000000) scale(0.100000,-0.100000)"
fill="#000000" stroke="none">
<path d="M880 4541 c0 -33 6 -297 14 -588 8 -290 17 -930 21 -1421 3 -491 8
-899 11 -906 3 -8 -12 -20 -38 -32 -158 -71 -412 -219 -488 -286 -9 -8 -33
-27 -53 -42 -44 -34 -99 -114 -117 -170 -12 -38 -9 -168 6 -230 6 -23 4 -28
-8 -24 -7 3 -25 0 -39 -8 -24 -13 -24 -14 -3 -20 16 -4 23 -16 28 -44 4 -24
17 -49 34 -65 15 -14 34 -32 43 -41 10 -8 19 -26 21 -39 5 -24 1 -26 -111 -73
-11 -4 -11 0 2 18 21 30 22 41 2 34 -9 -4 -15 0 -15 10 0 9 -5 16 -12 16 -6 0
-3 9 7 20 15 17 16 20 3 20 -11 0 -19 18 -28 65 -7 36 -10 71 -7 79 3 8 0 17
-8 19 -18 8 -26 -3 -16 -22 5 -9 12 -48 16 -87 6 -68 6 -70 -19 -82 -24 -11
-26 -9 -32 22 -3 19 -7 63 -7 100 -2 57 -4 66 -21 66 -14 0 -16 -3 -7 -14 6
-7 14 -65 17 -127 l6 -114 -26 41 c-14 23 -33 44 -41 48 -13 5 -15 -35 -15
-329 l0 -335 1986 0 c1761 0 1985 2 1980 15 -3 8 -1 15 4 15 5 0 15 -7 24 -15
12 -12 49 -15 205 -15 l190 0 -1 34 c-1 24 11 53 39 97 53 86 104 210 110 273
10 101 -54 194 -148 213 -17 3 -33 12 -36 19 -3 8 -14 14 -24 14 -31 0 -22
-37 20 -83 45 -49 61 -78 61 -106 0 -12 4 -21 8 -21 10 0 12 -13 12 -113 0
-77 -10 -121 -24 -99 -3 6 -7 22 -8 36 -3 35 -23 40 -50 11 -13 -14 -26 -25
-30 -25 -16 0 -78 63 -78 80 0 10 -6 20 -13 23 -8 3 -22 31 -32 64 -18 59 -28
73 -55 73 -17 0 -56 -70 -83 -150 -12 -34 -6 28 7 77 19 70 61 156 110 226 32
45 53 64 101 87 59 29 133 41 120 20 -3 -6 1 -7 9 -4 9 3 13 10 10 15 -3 5 2
6 11 2 12 -4 13 -8 5 -13 -8 -5 1 -14 26 -25 22 -9 47 -21 57 -26 17 -9 17 -8
1 16 -9 14 -22 29 -28 33 -6 4 -24 25 -41 47 -76 103 -111 126 -154 103 -33
-17 -80 -69 -109 -122 -13 -22 -30 -50 -37 -61 -23 -36 -95 -232 -116 -315
-12 -50 -50 -143 -55 -137 -2 2 12 53 32 113 55 174 72 266 43 249 -5 -4 -9 5
-9 19 0 14 4 27 10 31 9 6 10 125 0 125 -3 0 -21 -49 -40 -109 -19 -60 -37
-105 -38 -100 -2 5 2 24 8 42 22 59 39 141 40 186 0 36 -3 42 -16 37 -12 -5
-15 -2 -9 11 20 50 19 56 -9 51 -15 -3 -24 -3 -22 0 3 3 -2 11 -12 18 -21 16
-68 18 -77 3 -4 -6 -13 -8 -20 -5 -8 3 -28 1 -46 -4 -38 -11 -63 3 -54 31 6
17 -7 47 -33 81 -8 9 -11 21 -8 27 4 5 2 12 -4 16 -5 3 -10 14 -10 24 0 22
-93 111 -115 111 -9 0 -13 5 -9 11 10 16 84 3 194 -36 52 -18 104 -36 115 -39
61 -21 -45 27 -130 59 -76 28 -115 37 -166 38 -78 1 -87 12 -60 73 16 35 16
40 1 68 -9 17 -41 56 -72 86 -48 48 -59 68 -93 160 -21 58 -47 123 -59 145
-24 46 -139 165 -159 165 -8 0 -38 13 -68 29 -30 15 -103 45 -162 65 l-109 38
-23 -22 c-14 -13 -29 -19 -36 -15 -8 6 -10 4 -4 -5 6 -10 4 -12 -8 -7 -29 11
-35 -53 -22 -223 9 -121 -1 -182 -48 -305 -54 -142 -110 -203 -163 -175 -21
12 -29 12 -47 1 -20 -13 -20 -12 2 13 18 19 31 24 45 20 20 -6 20 -6 -1 15
-26 25 -35 27 -27 6 5 -11 -1 -15 -20 -15 -30 0 -35 19 -8 27 10 2 24 17 30
31 7 16 9 19 6 6 -6 -29 36 -42 51 -16 14 24 14 71 -1 65 -7 -2 -9 -14 -7 -26
5 -21 5 -21 -13 -4 -18 17 -18 18 4 33 22 15 87 143 77 152 -3 3 2 13 11 23 8
9 17 27 18 40 2 13 8 35 13 49 6 14 16 57 23 97 7 40 17 70 21 67 4 -2 7 4 7
13 -1 10 2 38 6 63 l7 45 -16 -28 c-9 -16 -14 -34 -12 -40 5 -14 -23 -67 -35
-67 -4 0 -8 -6 -8 -13 0 -8 -11 -20 -25 -27 -28 -15 -33 -45 -9 -58 15 -8 15
-10 0 -15 -9 -4 -16 -13 -16 -21 0 -27 -17 -26 -19 2 -5 102 -1 139 17 139 6
0 12 -6 12 -14 0 -21 18 -15 36 12 17 26 15 61 -4 57 -7 -1 -12 2 -12 8 0 18
-18 10 -23 -10 -5 -21 -27 -28 -27 -9 0 5 4 7 10 4 6 -4 9 10 8 34 -1 41 -18
59 -18 21 0 -11 -7 -20 -15 -20 -11 0 -12 5 -5 25 5 14 8 25 5 25 -6 0 -35
-62 -35 -76 0 -7 -5 -14 -11 -16 -12 -4 -20 -91 -9 -108 4 -7 -1 -31 -11 -54
-10 -22 -19 -56 -19 -73 0 -19 -8 -41 -20 -53 -11 -11 -18 -20 -15 -20 3 0 -3
-9 -12 -20 -10 -11 -24 -20 -31 -20 -8 0 -24 -10 -37 -22 -18 -17 -21 -27 -14
-45 5 -14 5 -23 -1 -23 -6 0 -10 9 -10 20 0 11 -7 23 -15 26 -8 3 -20 21 -27
40 -6 19 -19 34 -28 34 -10 0 -11 3 -3 8 8 5 9 13 3 22 -13 20 -13 43 0 35 6
-4 8 -10 5 -14 -7 -13 98 -31 110 -20 7 7 4 8 -7 4 -11 -4 -18 -2 -18 4 0 6 4
11 9 11 5 0 5 15 1 36 -7 28 -5 39 10 54 10 10 14 22 9 27 -5 5 -5 22 0 40 5
18 8 44 6 59 -1 15 4 34 11 42 15 14 13 31 -13 120 -9 28 -20 52 -24 52 -5 0
-9 7 -9 15 0 9 -11 21 -25 27 -23 10 -29 20 -26 41 0 4 -4 7 -10 7 -19 0 -43
30 -32 41 6 6 14 4 23 -6 24 -29 32 -16 27 43 -8 91 -29 162 -47 162 -9 0 -21
5 -28 12 -6 6 -28 17 -47 24 l-36 12 8 -31 c12 -50 8 -96 -10 -115 -16 -15
-17 -15 -17 4 0 30 -33 64 -61 64 -25 0 -84 -19 -108 -34 -10 -7 -12 -6 -6 4
15 24 16 70 1 70 -9 0 -15 14 -18 39 -2 22 0 37 4 35 12 -8 9 11 -3 23 -11 11
-14 116 -4 133 3 5 12 51 21 102 18 109 31 148 50 148 8 0 13 -3 12 -7 -5 -20
25 -121 49 -166 15 -27 49 -69 76 -93 27 -24 46 -48 42 -54 -3 -5 2 -10 13
-10 11 0 25 -7 32 -15 7 -8 17 -12 22 -9 5 3 8 0 7 -7 -1 -8 5 -30 14 -49 9
-20 16 -27 17 -17 0 26 35 21 48 -8 12 -27 28 -33 35 -12 3 9 7 9 20 -2 12 -9
17 -10 17 -2 0 7 5 9 10 6 6 -3 8 -25 5 -48 l-5 -42 13 40 c11 33 17 40 36 37
19 -2 22 1 15 15 -10 24 -6 135 6 147 17 17 11 38 -16 62 l-25 24 34 0 c35 0
97 -25 97 -40 0 -4 6 -10 14 -13 11 -5 13 7 10 62 -2 37 -8 79 -13 94 -6 15
-7 27 -4 27 4 0 2 5 -4 11 -8 8 -8 20 -1 40 15 45 -6 96 -43 104 -27 6 -29 10
-24 34 7 32 -11 51 -68 74 -49 21 -51 55 -3 93 35 29 76 41 76 24 0 -6 6 -10
14 -10 8 0 24 -13 37 -30 13 -16 29 -30 35 -30 7 0 15 -12 18 -26 9 -34 52
-102 87 -138 16 -15 29 -35 29 -42 0 -8 9 -30 19 -50 11 -20 17 -42 14 -50 -3
-8 0 -21 7 -29 6 -8 9 -19 5 -24 -3 -6 -3 -28 2 -48 l7 -38 7 50 c11 76 46
191 80 257 12 23 12 65 0 72 -5 3 -7 47 -5 97 3 69 1 90 -9 86 -7 -2 -16 11
-23 32 -6 20 -16 35 -22 33 -7 -1 -12 5 -12 14 0 8 -5 12 -11 8 -7 -4 -9 0 -5
13 7 22 -27 107 -38 96 -4 -4 -4 0 -1 9 4 10 -1 21 -12 29 -11 8 -20 23 -20
34 -4 86 -12 129 -27 137 -25 14 -66 54 -66 65 0 5 -19 18 -42 28 -24 10 -64
35 -89 55 -69 54 -174 77 -283 61 -170 -25 -277 -27 -289 -5 -10 18 -51 18
-67 -1 -8 -10 -21 -13 -38 -8 -15 3 -31 6 -37 5 -52 -5 -94 -16 -132 -33 -32
-15 -49 -17 -56 -10 -13 13 -47 -14 -47 -36 0 -7 -7 -13 -15 -13 -8 0 -15 5
-15 11 0 8 -5 8 -15 -1 -12 -10 -16 -8 -24 11 -9 23 -10 23 -10 -7 -1 -23 -8
-34 -28 -45 -37 -18 -69 -42 -73 -54 -2 -5 -24 -26 -50 -45 -26 -19 -54 -43
-64 -52 -24 -25 -37 -23 -95 17 -62 41 -59 29 4 -16 47 -34 56 -49 28 -49 -9
0 -13 -3 -10 -7 4 -3 -7 -15 -24 -25 -30 -18 -32 -18 -53 -1 l-21 18 19 -23
c22 -25 15 -42 -9 -22 -22 19 -47 -5 -39 -37 6 -22 4 -24 -15 -18 -28 9 -27
-1 7 -31 23 -21 23 -23 5 -14 l-23 11 21 -36 21 -35 -28 -57 c-16 -31 -27 -67
-25 -81 2 -19 -1 -23 -13 -19 -21 8 -21 -2 0 -17 14 -11 14 -18 -5 -71 -11
-33 -21 -51 -22 -40 -3 33 -5 179 -12 680 -4 264 -10 567 -13 673 l-6 192 -29
0 c-29 0 -29 -1 -29 -59z m1847 -1083 c-2 -13 -4 -5 -4 17 -1 22 1 32 4 23 2
-10 2 -28 0 -40z m130 -275 c-3 -10 -5 -2 -5 17 0 19 2 27 5 18 2 -10 2 -26 0
-35z m-1910 5 c-3 -8 -6 -5 -6 6 -1 11 2 17 5 13 3 -3 4 -12 1 -19z m0 -65
c-3 -10 -5 -4 -5 12 0 17 2 24 5 18 2 -7 2 -21 0 -30z m0 -360 c-1 -65 -3 -14
-3 112 0 127 2 180 3 118 2 -62 2 -165 0 -230z m83 302 l8 20 7 -20 c20 -58
30 -80 50 -109 26 -38 61 -199 45 -204 -14 -5 -13 -23 2 -19 6 1 14 -7 16 -18
2 -11 11 -26 20 -32 9 -8 11 -13 4 -13 -7 0 -12 -4 -12 -10 0 -5 7 -10 15 -10
8 0 15 -4 15 -10 0 -5 -5 -10 -10 -10 -6 0 -10 -6 -9 -12 2 -7 -3 -32 -10 -56
-7 -25 -9 -61 -5 -88 3 -24 2 -44 -2 -44 -5 0 -10 33 -12 72 -2 40 -6 75 -8
77 -3 3 -21 -4 -41 -14 -19 -11 -48 -18 -64 -17 -24 3 -29 0 -29 -17 0 -12 6
-21 13 -22 6 -1 21 -2 32 -3 18 -1 20 -9 22 -86 3 -81 18 -256 21 -235 1 6 13
12 27 13 21 1 24 -1 17 -16 -5 -9 -12 -41 -16 -70 -6 -47 -4 -55 17 -75 41
-38 52 -72 63 -195 3 -31 11 -60 17 -65 14 -9 11 -11 -135 -90 l-108 -57 0 97
c0 54 -3 369 -7 701 -3 358 -2 602 3 602 5 0 16 15 24 33 14 31 15 32 19 7 3
-23 4 -23 11 -5z m1417 -192 c22 -20 57 -82 50 -89 -3 -3 -25 8 -51 23 -48 29
-63 60 -25 50 20 -5 20 -5 3 14 -21 24 -4 25 23 2z m-1260 -75 c-3 -7 -5 -2
-5 12 0 14 2 19 5 13 2 -7 2 -19 0 -25z m5 -53 c3 -13 2 -22 -2 -20 -11 7 -20
45 -10 45 4 0 10 -11 12 -25z m-2 -45 c0 -5 -4 -10 -10 -10 -5 0 -10 5 -10 10
0 6 5 10 10 10 6 0 10 -4 10 -10z m-243 -132 c-2 -13 -4 -3 -4 22 0 25 2 35 4
23 2 -13 2 -33 0 -45z m1353 -28 c0 -5 -4 -10 -9 -10 -6 0 -13 5 -16 10 -3 6
1 10 9 10 9 0 16 -4 16 -10z m-1340 -460 c0 -236 3 -436 6 -445 4 -9 1 -15 -7
-15 -12 0 -14 77 -14 445 0 245 3 445 7 445 4 0 8 -193 8 -430z m977 258 c-3
-8 -6 -5 -6 6 -1 11 2 17 5 13 3 -3 4 -12 1 -19z m271 -70 c27 -14 28 -28 3
-50 -21 -18 -61 -20 -61 -5 0 5 -7 4 -16 -4 -28 -23 -34 9 -7 40 27 30 47 35
81 19z m413 -346 c-6 -2 -11 -11 -12 -20 0 -9 -3 -12 -5 -6 -3 6 1 24 7 40 11
25 13 26 17 9 2 -10 -1 -21 -7 -23z m-402 -38 c6 -13 16 -24 22 -24 6 0 9 -6
6 -12 -2 -7 5 -18 17 -25 20 -12 20 -12 1 -13 -12 0 -16 -3 -9 -8 6 -4 9 -23
6 -44 -3 -29 -9 -38 -23 -38 -10 0 -19 5 -19 10 0 6 -4 10 -10 10 -5 0 -10 -7
-10 -15 0 -8 -9 -15 -21 -15 -13 0 -18 4 -13 13 5 8 2 7 -9 -2 -10 -8 -19 -12
-20 -10 -1 2 -11 14 -21 26 -17 21 -17 23 -2 39 19 18 6 44 -23 44 -14 0 -14
2 -1 11 12 8 10 10 -10 8 -41 -2 -44 0 -26 20 10 11 31 23 47 26 16 4 31 10
33 14 3 4 20 7 39 8 27 1 37 -4 46 -23z m291 6 c0 -5 -5 -10 -11 -10 -5 0 -7
5 -4 10 3 6 8 10 11 10 2 0 4 -4 4 -10z m0 -36 c0 -8 -5 -12 -10 -9 -6 4 -8
11 -5 16 9 14 15 11 15 -7z m21 -61 c-12 -20 -14 -14 -5 12 4 9 9 14 11 11 3
-2 0 -13 -6 -23z m59 -73 c0 -5 -5 -10 -11 -10 -5 0 -7 5 -4 10 3 6 8 10 11
10 2 0 4 -4 4 -10z m-385 -50 c-5 -8 -11 -8 -17 -2 -6 6 -7 16 -3 22 5 8 11 8
17 2 6 -6 7 -16 3 -22z m-11 -22 c22 -8 30 -8 38 3 8 12 9 11 5 -1 -2 -8 0
-23 5 -34 7 -14 7 -16 -2 -11 -9 5 -10 1 -5 -14 4 -14 2 -21 -7 -21 -10 0 -9
-3 2 -10 12 -8 10 -10 -8 -10 -13 0 -32 5 -43 10 -15 9 -19 7 -19 -5 0 -12 -8
-14 -38 -9 -28 4 -41 2 -51 -10 -7 -9 -22 -16 -32 -16 -14 0 -17 7 -16 34 2
19 6 38 10 43 11 10 40 10 48 0 4 -5 9 3 13 18 5 18 12 25 22 21 9 -3 12 -1 9
4 -10 16 6 32 24 25 9 -4 29 -12 45 -17z m88 -88 c25 -23 19 -35 -11 -25 -12
3 -21 15 -21 26 0 24 6 24 32 -1z m-172 -30 c0 -5 -7 -10 -15 -10 -8 0 -15 5
-15 10 0 6 7 10 15 10 8 0 15 -4 15 -10z m330 -180 c0 -5 -4 -10 -9 -10 -6 0
-13 5 -16 10 -3 6 1 10 9 10 9 0 16 -4 16 -10z m60 -369 c-11 -42 -54 -90
-107 -119 -157 -85 -326 -151 -357 -139 -8 3 -31 -3 -52 -13 -29 -14 -52 -17
-86 -13 -27 3 -48 9 -48 13 0 5 -8 6 -18 3 -10 -2 -31 3 -47 11 -17 9 -39 16
-51 16 -11 0 -24 4 -30 8 -5 5 -29 17 -54 26 -120 47 -188 88 -220 132 -18 25
-30 48 -27 51 3 2 16 -11 29 -30 31 -47 82 -79 203 -126 139 -54 214 -65 350
-51 86 9 128 19 190 45 44 19 104 43 133 54 59 22 162 87 162 103 0 15 32 79
37 74 2 -2 -1 -22 -7 -45z m-1106 3 c3 -8 2 -12 -4 -9 -6 3 -10 10 -10 16 0
14 7 11 14 -7z m646 -38 c0 -2 -7 -9 -15 -16 -13 -11 -14 -10 -9 4 5 14 24 23
24 12z m-1897 -338 c-13 -12 -25 -19 -29 -15 -10 10 16 37 34 37 13 0 12 -4
-5 -22z m3895 -15 c-13 -16 -31 -53 -28 -61 2 -8 -27 -29 -37 -25 -6 2 -13 -4
-16 -14 -3 -12 -5 -9 -6 9 -1 20 3 26 14 22 8 -4 15 -1 15 5 0 6 7 19 15 28 8
10 15 22 14 27 -1 10 21 26 35 26 5 0 2 -8 -6 -17z m-3708 -21 c0 -5 -18 -14
-40 -21 -21 -6 -46 -19 -55 -27 -9 -9 -19 -13 -22 -10 -12 11 33 48 68 56 47
11 49 11 49 2z m38 -44 c7 -7 12 -19 12 -27 0 -11 -6 -8 -24 8 -17 16 -31 21
-48 16 -18 -5 -20 -4 -8 4 20 14 53 14 68 -1z m-208 -18 c0 -10 -31 -23 -38
-15 -8 7 19 35 29 29 5 -3 9 -9 9 -14z m1683 -105 c45 -4 77 -4 77 2 0 5 16 7
35 5 23 -3 35 0 35 8 0 10 3 10 15 0 14 -12 13 -17 -12 -43 l-28 -29 -99 6
c-81 4 -103 9 -119 25 -17 17 -18 22 -7 36 7 9 16 12 19 7 3 -6 41 -13 84 -17z
m67 15 c0 -5 -7 -10 -15 -10 -8 0 -15 5 -15 10 0 6 7 10 15 10 8 0 15 -4 15
-10z"/>
<path d="M1080 2806 c0 -2 7 -9 15 -16 9 -7 15 -8 15 -2 0 5 -7 12 -15 16 -8
3 -15 4 -15 2z"/>
<path d="M1078 2743 c7 -3 16 -2 19 1 4 3 -2 6 -13 5 -11 0 -14 -3 -6 -6z"/>
<path d="M1065 2650 c3 -5 10 -10 16 -10 5 0 9 5 9 10 0 6 -7 10 -16 10 -8 0
-12 -4 -9 -10z"/>
<path d="M1123 2639 c9 -5 17 -14 17 -19 0 -5 -8 -11 -17 -13 -11 -3 -6 -5 11
-6 22 -1 27 3 22 15 -3 9 -6 20 -6 25 0 5 -10 9 -22 9 -21 -1 -21 -2 -5 -11z"/>
<path d="M1055 2610 c-17 -7 -15 -9 13 -9 17 -1 32 4 32 9 0 12 -17 12 -45 0z"/>
<path d="M1028 2413 c7 -3 16 -2 19 1 4 3 -2 6 -13 5 -11 0 -14 -3 -6 -6z"/>
<path d="M1015 2370 c4 -6 11 -8 16 -5 14 9 11 15 -7 15 -8 0 -12 -5 -9 -10z"/>
<path d="M1015 2340 c-8 -13 -1 -24 14 -19 6 3 7 10 2 18 -6 10 -10 10 -16 1z"/>
<path d="M2181 2234 c0 -11 3 -14 6 -6 3 7 2 16 -1 19 -3 4 -6 -2 -5 -13z"/>
<path d="M2195 1620 c3 -5 8 -10 11 -10 2 0 4 5 4 10 0 6 -5 10 -11 10 -5 0
-7 -4 -4 -10z"/>
<path d="M2095 1570 c-3 -5 1 -10 10 -10 9 0 13 5 10 10 -3 6 -8 10 -10 10 -2
0 -7 -4 -10 -10z"/>
<path d="M1760 380 c0 -6 26 -11 58 -11 31 -1 72 -3 90 -5 26 -2 31 0 22 11
-13 16 -170 20 -170 5z"/>
<path d="M4143 3315 c-7 -8 -13 -23 -13 -34 0 -11 -4 -22 -10 -26 -12 -7 -1
-37 13 -32 6 2 12 12 13 23 2 10 6 34 9 52 7 36 5 37 -12 17z"/>
<path d="M3594 3270 c6 -41 4 -50 -9 -50 -9 0 -15 9 -15 21 0 15 -4 19 -16 15
-9 -3 -24 -6 -35 -6 -10 0 -19 -4 -19 -10 0 -5 9 -10 19 -10 10 0 21 -7 25
-15 3 -8 15 -15 26 -15 11 0 23 -7 26 -15 9 -23 22 -8 16 20 -5 26 14 59 29
49 5 -3 9 2 9 10 0 14 17 21 42 17 4 0 19 6 35 15 l28 15 -39 -7 c-25 -4 -37
-3 -33 3 4 6 -3 8 -18 5 -16 -3 -25 -11 -25 -23 0 -11 -7 -19 -16 -19 -10 0
-13 6 -9 19 4 12 0 21 -11 25 -15 6 -16 0 -10 -44z"/>
<path d="M4062 3313 c14 -3 15 -9 8 -29 -9 -21 -7 -24 15 -24 17 0 25 6 25 18
0 24 -20 42 -44 41 -17 -1 -17 -2 -4 -6z"/>
<path d="M3550 3290 c0 -5 5 -10 10 -10 6 0 10 5 10 10 0 6 -4 10 -10 10 -5 0
-10 -4 -10 -10z"/>
<path d="M4205 3290 c-3 -5 1 -10 10 -10 9 0 13 5 10 10 -3 6 -8 10 -10 10 -2
0 -7 -4 -10 -10z"/>
<path d="M3714 3245 c22 -17 36 -19 36 -6 0 10 -24 21 -43 21 -7 0 -3 -7 7
-15z"/>
<path d="M4214 3249 c-3 -5 0 -9 6 -9 6 0 8 -5 5 -10 -4 -6 -12 -4 -21 5 -17
17 -34 12 -34 -10 0 -21 -20 -29 -65 -27 -34 2 -38 0 -24 -11 10 -7 50 -14 95
-15 l79 -2 1 30 c1 16 -3 27 -7 24 -5 -3 -9 -1 -9 5 0 5 6 11 12 13 7 3 2 7
-10 10 -12 4 -25 2 -28 -3z"/>
<path d="M4286 3242 c12 -10 25 -28 29 -40 4 -15 17 -25 36 -29 39 -7 46 -21
17 -32 -22 -9 -22 -10 5 -10 16 -1 26 3 22 8 -3 6 2 14 11 19 15 9 15 10 -4
16 -23 8 -28 21 -12 31 16 10 12 25 -5 18 -9 -3 -22 2 -30 13 -12 15 -16 16
-23 6 -8 -11 -10 -11 -15 2 -4 9 -17 16 -29 16 l-23 -1 21 -17z"/>
<path d="M4505 3240 c-3 -5 -1 -18 4 -27 9 -16 10 -14 11 10 0 28 -5 34 -15
17z"/>
<path d="M3625 3230 c3 -5 8 -10 11 -10 2 0 4 5 4 10 0 6 -5 10 -11 10 -5 0
-7 -4 -4 -10z"/>
<path d="M3893 3233 c10 -6 9 -33 -2 -33 -5 0 -11 6 -14 13 -2 6 -7 9 -11 6
-9 -8 14 -69 26 -69 5 0 6 5 3 10 -3 6 1 10 9 10 9 0 16 8 17 18 0 10 3 12 6
5 8 -20 33 -15 33 6 0 12 -9 21 -24 25 -13 3 -30 7 -38 9 -7 2 -10 2 -5 0z"/>
<path d="M4410 3220 c0 -11 5 -20 10 -20 6 0 10 9 10 20 0 11 -4 20 -10 20 -5
0 -10 -9 -10 -20z"/>
<path d="M3436 3203 c0 -16 5 -27 10 -26 12 4 11 45 -1 50 -6 2 -10 -9 -9 -24z"/>
<path d="M3762 3205 c0 -16 2 -22 5 -12 2 9 2 23 0 30 -3 6 -5 -1 -5 -18z"/>
<path d="M3508 3214 c-5 -4 -8 -16 -8 -26 0 -13 8 -18 30 -18 17 0 30 5 30 10
0 6 -9 10 -19 10 -11 0 -21 7 -23 16 -2 9 -6 12 -10 8z"/>
<path d="M3796 3203 c-3 -10 -4 -27 -1 -38 2 -11 4 -23 4 -27 1 -5 4 -8 9 -8
4 0 7 20 7 45 0 46 -9 59 -19 28z"/>
<path d="M4278 3195 c2 -14 9 -25 14 -25 6 0 7 7 4 16 -3 9 -6 20 -6 25 0 5
-4 9 -9 9 -4 0 -6 -11 -3 -25z"/>
<path d="M3635 3191 c-7 -12 12 -24 25 -16 11 7 4 25 -10 25 -5 0 -11 -4 -15
-9z"/>
<path d="M4560 3186 c0 -8 -6 -17 -12 -20 -7 -3 -4 -5 7 -3 20 2 35 37 16 37
-6 0 -11 -6 -11 -14z"/>
<path d="M3709 3176 c9 -11 9 -15 -1 -19 -7 -2 -9 -8 -5 -13 9 -9 27 13 27 34
0 6 -7 12 -16 12 -13 0 -14 -3 -5 -14z"/>
<path d="M4506 3181 c-4 -7 -5 -15 -2 -18 9 -9 19 4 14 18 -4 11 -6 11 -12 0z"/>
<path d="M3995 3170 c3 -5 2 -10 -3 -10 -8 0 -22 -142 -21 -215 0 -29 0 -34
-4 -90 -3 -41 1 -54 20 -74 l23 -24 1 24 c1 13 1 30 0 37 -2 14 15 16 24 2 4
-6 11 -5 19 3 8 6 12 15 9 20 -2 4 1 7 6 7 6 0 11 6 11 14 0 9 -8 12 -25 8
-21 -4 -23 -7 -14 -24 9 -16 8 -19 -3 -16 -16 6 -25 108 -9 108 6 0 11 -11 11
-25 0 -18 5 -25 20 -25 22 0 26 10 9 27 -9 9 -6 10 10 6 20 -5 22 -11 19 -49
-2 -30 1 -44 9 -44 7 0 10 6 7 13 -2 7 2 29 11 49 14 34 13 37 -3 41 -14 3
-12 6 8 15 19 8 21 11 7 11 -14 1 -17 6 -12 21 4 11 2 20 -4 20 -6 0 -12 12
-12 28 -2 23 -2 24 -6 5 -3 -18 -12 -23 -36 -24 -24 -1 -26 -3 -9 -6 12 -2 22
-9 22 -14 0 -9 -37 -4 -48 6 -2 2 -5 38 -7 82 -2 43 -4 80 -5 83 -2 3 -2 8 -1
13 0 4 -6 7 -15 7 -8 0 -12 -4 -9 -10z m83 -212 c-3 -7 -11 -13 -18 -13 -7 0
-15 6 -17 13 -3 7 4 12 17 12 13 0 20 -5 18 -12z"/>
<path d="M3411 3126 c1 -31 1 -31 10 -6 9 24 12 25 86 23 61 -2 72 0 48 7 -16
5 -56 9 -87 8 -58 -2 -58 -2 -57 -32z"/>
<path d="M3610 3143 c0 -15 2 -15 24 -7 22 9 20 20 -4 20 -11 0 -20 -6 -20
-13z"/>
<path d="M4106 3151 c-4 -7 -5 -15 -2 -18 9 -9 19 4 14 18 -4 11 -6 11 -12 0z"/>
<path d="M4291 3153 c-1 -7 -9 -13 -18 -13 -15 0 -16 -2 -3 -10 18 -11 35 2
27 22 -4 9 -6 10 -6 1z"/>
<path d="M4477 3146 c-7 -18 11 -26 45 -19 20 4 27 0 31 -14 4 -15 5 -15 6 3
1 15 -6 23 -21 27 -13 2 -30 8 -39 11 -10 5 -19 2 -22 -8z"/>
<path d="M4440 3133 c0 -13 14 -30 30 -36 11 -4 10 -6 -4 -6 -16 -1 -18 -7
-14 -46 l6 -45 -34 0 c-19 0 -34 5 -34 10 0 6 3 10 8 10 4 0 8 11 8 25 1 14
-2 25 -7 25 -5 0 -9 -7 -9 -15 0 -8 -4 -15 -10 -15 -16 0 -12 -40 5 -46 27
-11 16 -22 -27 -29 -38 -7 -40 -9 -20 -16 24 -9 29 -25 10 -32 -7 -3 13 -4 44
-2 62 2 77 -11 63 -54 -4 -13 0 -23 12 -30 16 -9 15 -10 -7 -11 -18 0 -21 -3
-11 -9 10 -7 14 -57 15 -237 2 -134 -1 -234 -7 -241 -6 -8 -6 -13 0 -13 5 0 8
-32 6 -72 -1 -48 2 -75 10 -80 15 -9 36 51 25 74 -4 9 -6 29 -3 45 5 36 18
403 19 561 1 90 4 122 14 122 19 0 14 20 -5 21 -11 0 -13 3 -5 6 6 2 15 22 18
44 4 24 11 36 18 33 6 -3 0 4 -14 15 -14 11 -37 21 -52 21 -18 0 -28 5 -28 15
0 8 -4 15 -10 15 -5 0 -10 -3 -10 -7z m5 -153 c-3 -5 -11 -10 -16 -10 -6 0 -7
5 -4 10 3 6 11 10 16 10 6 0 7 -4 4 -10z"/>
<path d="M3790 3089 c0 -5 5 -7 10 -4 6 3 10 8 10 11 0 2 -4 4 -10 4 -5 0 -10
-5 -10 -11z"/>
<path d="M3408 3043 c-3 -26 -5 -95 -6 -153 -2 -85 0 -101 10 -85 6 11 13 43
14 70 1 28 3 57 3 65 2 23 -9 144 -13 148 -2 2 -6 -18 -8 -45z"/>
<path d="M3572 3065 c-17 -16 -20 -28 -17 -64 7 -70 14 -84 32 -69 14 12 61
13 73 1 2 -2 -2 -9 -10 -14 -12 -8 -11 -9 5 -7 27 4 31 34 5 41 -27 7 -26 23
3 31 18 5 20 8 7 16 -8 5 -26 10 -39 10 -23 0 -23 1 -8 18 10 10 17 22 17 27
0 4 7 13 15 19 12 9 8 11 -23 11 -25 0 -46 -7 -60 -20z"/>
<path d="M3745 3078 c-2 -7 -5 -28 -8 -45 -4 -36 8 -45 16 -12 4 15 11 19 25
14 24 -7 39 12 23 28 -8 8 -11 7 -11 -2 0 -10 -3 -11 -13 -2 -8 6 -18 7 -22 3
-5 -4 -5 1 -2 11 4 9 4 17 1 17 -2 0 -6 -6 -9 -12z"/>
<path d="M4574 3071 c4 -5 3 -17 0 -26 -5 -13 -8 -14 -15 -3 -5 8 -9 -23 -9
-74 0 -49 4 -87 9 -85 13 3 14 -5 1 -37 -14 -38 -5 -45 19 -15 15 18 20 39 21
84 0 82 -11 165 -22 165 -5 0 -7 -4 -4 -9z"/>
<path d="M3880 3040 c0 -24 13 -26 34 -4 20 20 21 19 -9 22 -19 1 -25 -3 -25
-18z"/>
<path d="M3512 3024 c-7 -8 -10 -19 -7 -25 4 -5 1 -17 -6 -26 -11 -13 -10 -17
4 -28 9 -7 17 -18 17 -25 0 -7 2 -11 5 -8 9 8 15 128 7 128 -4 -1 -13 -7 -20
-16z"/>
<path d="M3830 3023 c0 -6 -9 -15 -20 -18 -11 -3 -20 -15 -20 -26 0 -10 -5
-19 -11 -19 -6 0 -9 7 -6 15 4 8 2 17 -3 20 -6 4 -10 2 -10 -3 0 -10 -30 -9
-48 2 -17 11 -24 3 -16 -18 4 -9 14 -16 23 -14 23 4 41 -10 41 -32 0 -13 5
-17 15 -14 8 4 15 1 15 -5 0 -6 -4 -11 -10 -11 -15 0 -12 -30 5 -47 20 -20 30
-11 16 15 -8 15 -7 27 4 49 15 27 15 28 21 6 4 -14 14 -23 25 -23 11 0 19 -6
19 -14 0 -22 -19 -30 -26 -12 -3 9 -10 13 -16 10 -5 -3 -7 -13 -4 -21 4 -9 2
-21 -4 -28 -8 -9 -5 -14 10 -18 11 -3 20 0 20 5 0 7 4 7 13 0 6 -6 25 -8 40
-5 23 5 26 9 21 27 -4 11 -11 23 -15 24 -5 2 -9 35 -9 73 0 69 -7 82 -30 55
-6 -8 -18 -12 -27 -9 -9 4 -11 8 -4 12 6 4 7 12 1 21 -6 9 -10 10 -10 3z m40
-77 c0 -3 -4 -8 -10 -11 -5 -3 -10 -1 -10 4 0 6 5 11 10 11 6 0 10 -2 10 -4z"/>
<path d="M4280 2984 c-14 -35 -13 -44 4 -44 19 0 29 17 16 25 -6 4 -8 15 -5
26 9 29 -4 23 -15 -7z"/>
<path d="M4186 2984 c-9 -24 11 -54 32 -47 19 7 32 23 32 38 0 6 -4 4 -9 -4
-7 -10 -10 -10 -16 -1 -4 7 -1 16 6 21 10 6 7 9 -12 9 -15 0 -29 -7 -33 -16z"/>
<path d="M3447 2964 c3 -7 9 -14 14 -14 14 0 10 17 -5 23 -10 4 -13 1 -9 -9z"/>
<path d="M3704 2926 c-6 -6 -9 -17 -6 -24 2 -6 -1 -12 -7 -12 -6 0 -11 -7 -11
-16 0 -12 6 -15 23 -10 16 4 31 -1 46 -15 12 -12 25 -18 28 -15 9 8 -37 56
-54 56 -16 0 -17 12 -2 27 6 6 7 13 2 16 -4 3 -13 0 -19 -7z"/>
<path d="M3935 2930 c-3 -5 -1 -10 4 -10 6 0 11 5 11 10 0 6 -2 10 -4 10 -3 0
-8 -4 -11 -10z"/>
<path d="M3614 2921 c4 -5 1 -11 -4 -13 -12 -4 7 -68 20 -68 5 0 15 -3 24 -6
9 -3 16 -1 16 5 0 6 -9 11 -20 11 -25 0 -27 20 -2 20 16 1 16 1 0 14 -10 7
-18 21 -18 30 0 9 -5 16 -11 16 -5 0 -8 -4 -5 -9z"/>
<path d="M4378 2874 c-5 -4 -8 -19 -8 -33 1 -23 2 -24 11 -8 11 19 9 53 -3 41z"/>
<path d="M3548 2865 c-11 -12 4 -46 20 -43 20 4 28 28 9 28 -9 0 -17 5 -19 11
-2 5 -6 7 -10 4z"/>
<path d="M4280 2850 c0 -11 5 -20 10 -20 6 0 10 9 10 20 0 11 -4 20 -10 20 -5
0 -10 -9 -10 -20z"/>
<path d="M4346 2857 c3 -10 9 -15 12 -12 3 3 0 11 -7 18 -10 9 -11 8 -5 -6z"/>
<path d="M3686 2842 c-3 -5 1 -13 10 -16 23 -9 44 -7 44 4 0 5 -7 7 -16 3 -9
-3 -20 0 -24 7 -5 7 -10 8 -14 2z"/>
<path d="M4278 2813 c6 -2 18 -2 25 0 6 3 1 5 -13 5 -14 0 -19 -2 -12 -5z"/>
<path d="M3605 2669 c-28 -6 -26 -7 13 -8 42 -1 53 3 30 11 -7 2 -26 1 -43 -3z"/>
<path d="M3708 2663 c6 -2 18 -2 25 0 6 3 1 5 -13 5 -14 0 -19 -2 -12 -5z"/>
<path d="M3793 2663 c9 -2 23 -2 30 0 6 3 -1 5 -18 5 -16 0 -22 -2 -12 -5z"/>
<path d="M3888 2663 c7 -3 16 -2 19 1 4 3 -2 6 -13 5 -11 0 -14 -3 -6 -6z"/>
<path d="M3940 2660 c0 -12 47 -13 53 -2 3 4 -8 8 -24 9 -16 1 -29 -2 -29 -7z"/>
<path d="M3005 2650 c3 -5 8 -10 11 -10 2 0 4 5 4 10 0 6 -5 10 -11 10 -5 0
-7 -4 -4 -10z"/>
<path d="M2855 2530 l-29 -30 24 -73 24 -72 7 100 c4 55 6 101 5 102 -1 2 -15
-11 -31 -27z"/>
<path d="M223 2523 c9 -2 23 -2 30 0 6 3 -1 5 -18 5 -16 0 -22 -2 -12 -5z"/>
<path d="M865 2490 c-3 -5 1 -10 10 -10 9 0 13 5 10 10 -3 6 -8 10 -10 10 -2
0 -7 -4 -10 -10z"/>
<path d="M2772 2450 c0 -19 2 -27 5 -17 2 9 2 25 0 35 -3 9 -5 1 -5 -18z"/>
<path d="M218 2463 c7 -3 16 -2 19 1 4 3 -2 6 -13 5 -11 0 -14 -3 -6 -6z"/>
<path d="M258 2463 c7 -3 16 -2 19 1 4 3 -2 6 -13 5 -11 0 -14 -3 -6 -6z"/>
<path d="M248 2443 c7 -3 16 -2 19 1 4 3 -2 6 -13 5 -11 0 -14 -3 -6 -6z"/>
<path d="M306 2415 c-3 -8 -1 -15 4 -15 6 0 10 7 10 15 0 8 -2 15 -4 15 -2 0
-6 -7 -10 -15z"/>
<path d="M648 2413 c7 -3 16 -2 19 1 4 3 -2 6 -13 5 -11 0 -14 -3 -6 -6z"/>
<path d="M2766 2374 c4 -20 1 -60 -6 -89 -7 -30 -9 -61 -5 -72 7 -16 8 -16 12
-1 2 9 17 20 34 23 77 17 79 122 3 159 -46 21 -46 21 -38 -20z"/>
<path d="M150 2382 c0 -12 19 -26 26 -19 2 2 -2 10 -11 17 -9 8 -15 8 -15 2z"/>
<path d="M4378 2363 c7 -3 16 -2 19 1 4 3 -2 6 -13 5 -11 0 -14 -3 -6 -6z"/>
<path d="M2680 2135 c0 -8 5 -15 10 -15 6 0 10 7 10 15 0 8 -4 15 -10 15 -5 0
-10 -7 -10 -15z"/>
<path d="M2560 2054 c0 -8 5 -12 10 -9 6 3 10 10 10 16 0 5 -4 9 -10 9 -5 0
-10 -7 -10 -16z"/>
<path d="M3640 1792 c-19 -8 -37 -18 -40 -22 -3 -5 -22 -10 -42 -12 -35 -3
-36 -4 -22 -23 12 -16 16 -17 23 -6 6 9 18 11 42 6 19 -5 102 -9 186 -9 109
-2 156 -6 167 -15 14 -11 23 -11 59 2 23 9 64 15 90 15 32 -1 52 4 59 13 8 11
9 11 4 -3 -6 -20 14 -28 59 -23 78 8 111 8 121 3 5 -4 27 -3 47 2 25 5 50 3
79 -7 35 -12 49 -12 85 -1 24 7 43 16 43 20 0 4 -53 8 -117 9 -120 0 -174 9
-140 22 9 3 17 13 17 22 0 12 -15 15 -82 16 -46 0 -127 2 -180 5 -63 3 -98 1
-98 -6 0 -5 -9 -10 -20 -10 -11 0 -20 4 -20 9 0 11 -140 8 -157 -2 -6 -4 -15
-3 -18 3 -9 15 -102 10 -145 -8z m280 -22 c0 -5 -9 -10 -21 -10 -11 0 -17 5
-14 10 3 6 13 10 21 10 8 0 14 -4 14 -10z m45 1 c7 -12 -12 -24 -25 -16 -11 7
-4 25 10 25 5 0 11 -4 15 -9z m135 -11 c0 -4 -13 -7 -30 -8 -28 -1 -37 7 -25
20 8 7 55 -3 55 -12z m160 11 c0 -6 -4 -13 -10 -16 -5 -3 -10 1 -10 9 0 9 5
16 10 16 6 0 10 -4 10 -9z"/>
<path d="M2298 1603 c7 -3 16 -2 19 1 4 3 -2 6 -13 5 -11 0 -14 -3 -6 -6z"/>
<path d="M4500 1190 c0 -5 5 -10 10 -10 6 0 10 5 10 10 0 6 -4 10 -10 10 -5 0
-10 -4 -10 -10z"/>
<path d="M4430 1180 c0 -6 7 -10 15 -10 8 0 15 2 15 4 0 2 -7 6 -15 10 -8 3
-15 1 -15 -4z"/>
<path d="M4468 1153 c7 -3 16 -2 19 1 4 3 -2 6 -13 5 -11 0 -14 -3 -6 -6z"/>
<path d="M3910 1145 c0 -2 10 -10 23 -16 20 -11 21 -11 8 4 -13 16 -31 23 -31
12z"/>
<path d="M4480 1120 c0 -6 7 -13 15 -17 24 -9 27 1 5 15 -13 8 -20 8 -20 2z"/>
<path d="M3960 1116 c0 -3 9 -10 20 -16 11 -6 20 -8 20 -6 0 3 -9 10 -20 16
-11 6 -20 8 -20 6z"/>
<path d="M4038 1064 c18 -14 30 -30 27 -35 -4 -5 7 -6 23 -3 20 4 34 0 47 -12
15 -15 31 -18 90 -15 l73 3 63 -62 c35 -34 65 -57 67 -51 3 9 8 8 20 -1 13
-11 15 -11 10 3 -3 9 -3 21 1 27 8 13 51 5 51 -9 0 -5 9 -9 20 -9 11 0 20 5
20 10 0 6 8 10 18 10 14 0 15 -2 2 -10 -12 -8 -11 -10 8 -10 20 0 22 4 22 58
0 52 -2 58 -27 70 -31 14 -55 16 -34 3 7 -5 11 -14 7 -19 -4 -8 -21 -6 -53 3
-33 10 -51 11 -59 4 -9 -7 -25 -7 -50 0 -29 8 -40 7 -46 -2 -5 -9 -11 -7 -21
7 -13 17 -14 17 -31 1 -13 -14 -27 -16 -61 -12 -25 4 -47 2 -50 -3 -4 -6 -17
-2 -32 10 -14 11 -36 20 -48 20 -12 0 -32 11 -45 25 -13 14 -28 25 -34 25 -6
0 4 -12 22 -26z m404 -131 c-6 -3 -10 -9 -6 -14 3 -5 -4 -9 -15 -9 -11 0 -25
8 -30 18 -8 16 -6 17 27 13 20 -2 31 -6 24 -8z"/>
<path d="M4589 208 c-6 -21 -5 -38 2 -38 5 0 9 9 9 20 0 16 -7 28 -11 18z"/>
<path d="M4471 114 c-27 -30 -51 -73 -51 -90 0 -2 9 -4 19 -4 11 0 23 -4 26
-10 3 -5 35 -10 71 -10 60 0 64 1 64 23 0 12 -12 35 -27 52 -16 16 -32 38 -38
49 -16 31 -30 29 -64 -10z"/>
</g>
</svg>
